<svg preserveAspectRatio="none" overflow="visible" style="display: block;" width="20" height="20" viewBox="0 0 20 20" fill="none" xmlns="http://www.w3.org/2000/svg">
<g id="ic_stroke_collapse_menu">
<g id="vector">
<path d="M11.5557 4.31759C11.207 3.94499 10.633 3.89344 10.2236 4.19845C10.2009 4.21538 10.1754 4.23749 10.124 4.28048C10.1087 4.2933 10.1009 4.30009 10.0947 4.30587C9.98391 4.40999 9.96801 4.58032 10.0586 4.70236C10.0636 4.70909 10.0704 4.71655 10.083 4.73166L13.8428 9.23752C14.1487 9.6041 14.3016 9.78743 14.3018 10.0041C14.3018 10.2209 14.1488 10.405 13.8428 10.7717L10.0928 15.2649C10.0753 15.2858 10.0662 15.2966 10.0596 15.3059C9.97136 15.4297 9.98955 15.6005 10.1025 15.7024C10.111 15.71 10.1221 15.718 10.1436 15.7346C10.2113 15.7869 10.2459 15.813 10.2764 15.8332C10.6792 16.0995 11.2152 16.0414 11.5508 15.6945C11.5762 15.6682 11.6043 15.6353 11.6592 15.5695L15.2354 11.2824C15.7451 10.6713 16 10.3654 16 10.0041C16 9.64297 15.7449 9.33766 15.2354 8.72677L11.6396 4.41525C11.5969 4.36396 11.575 4.33825 11.5557 4.31759Z" fill="#0C1126"/>
<path d="M5.85547 4.31759C5.50684 3.94499 4.93281 3.89344 4.52344 4.19845C4.50073 4.21538 4.47516 4.23749 4.42383 4.28048C4.40853 4.2933 4.4007 4.30009 4.39453 4.30587C4.28372 4.40999 4.26781 4.58032 4.3584 4.70236C4.3634 4.70909 4.3702 4.71655 4.38281 4.73166L8.14258 9.23752C8.44846 9.6041 8.60145 9.78743 8.60156 10.0041C8.60155 10.2209 8.44863 10.405 8.14258 10.7717L4.39258 15.2649C4.37512 15.2858 4.36603 15.2966 4.35937 15.3059C4.27117 15.4297 4.28936 15.6005 4.40234 15.7024C4.41083 15.71 4.42191 15.718 4.44336 15.7346C4.5111 15.7869 4.54567 15.813 4.57617 15.8332C4.97899 16.0995 5.51504 16.0414 5.85059 15.6945C5.87603 15.6682 5.90412 15.6353 5.95898 15.5695L9.53516 11.2824C10.0449 10.6713 10.2998 10.3654 10.2998 10.0041C10.2998 9.64297 10.0447 9.33766 9.53516 8.72677L5.93945 4.41525C5.89667 4.36396 5.87478 4.33825 5.85547 4.31759Z" fill="#0C1126"/>
</g>
</g>
</svg>
