<svg preserveAspectRatio="none" overflow="visible" style="display: block;" width="20" height="20" viewBox="0 0 20 20" fill="none" xmlns="http://www.w3.org/2000/svg">
<g id="Icon">
<g id="vector">
<path d="M7.34672 6.75332C7.76366 5.78383 8.78982 5.1267 10.2569 5.1267C12.0792 5.1267 13.2834 6.13979 13.2834 7.59253C13.2834 8.55466 12.8183 9.22368 11.9199 9.75253C11.0725 10.2432 10.8367 10.6828 10.8367 11.3073C10.8367 11.5062 10.6755 11.6674 10.4765 11.6674H9.54047C9.32181 11.6674 9.14259 11.4939 9.13548 11.2754C9.05265 10.275 9.40309 9.57412 10.2824 9.05802C11.1043 8.5674 11.3528 8.25519 11.3528 7.64988C11.3528 7.04457 10.8686 6.60493 10.1422 6.60493C9.62186 6.60493 9.14235 7.02858 8.823 7.4696C8.61716 7.75387 8.28833 8.05916 7.73571 7.81512C7.26892 7.60898 7.17978 7.14215 7.34672 6.75332Z" fill="#0C1126"/>
<path d="M9.99967 15C9.35534 15 8.83301 14.4777 8.83301 13.8333C8.83301 13.189 9.35534 12.6667 9.99967 12.6667C10.644 12.6667 11.1663 13.189 11.1663 13.8333C11.1663 14.4777 10.644 15 9.99967 15Z" fill="#0C1126"/>
<path fill-rule="evenodd" clip-rule="evenodd" d="M10 18.3333C14.6024 18.3333 18.3333 14.6024 18.3333 10C18.3333 5.39763 14.6024 1.66667 10 1.66667C5.39763 1.66667 1.66667 5.39763 1.66667 10C1.66667 14.6024 5.39763 18.3333 10 18.3333ZM10 16.6667C13.6819 16.6667 16.6667 13.6819 16.6667 10C16.6667 6.3181 13.6819 3.33333 10 3.33333C6.3181 3.33333 3.33333 6.3181 3.33333 10C3.33333 13.6819 6.3181 16.6667 10 16.6667Z" fill="#0C1126"/>
</g>
</g>
</svg>
