<svg preserveAspectRatio="none" overflow="visible" style="display: block;" width="20" height="20" viewBox="0 0 20 20" fill="none" xmlns="http://www.w3.org/2000/svg">
<g id="Icon">
<g id="vector">
<path d="M6.00098 12C6.55326 12 7.00098 12.4477 7.00098 13V13.1006C7.00087 13.2661 6.8667 13.4003 6.70117 13.4004H3.60156C3.52689 13.4004 3.47846 13.4792 3.51367 13.5449C4.81817 15.9641 7.35392 17.6004 10.2588 17.6006C13.4856 17.6006 16.2585 15.5824 17.3926 12.7139C17.5566 12.2994 17.9419 12.0011 18.3877 12.001H18.7021C18.8962 12.001 19.0394 12.1825 18.9863 12.3691C17.8951 16.1988 14.4018 19.001 10.2588 19.001L9.79199 18.9893C6.73669 18.8329 4.08071 17.1513 2.55371 14.6836C2.5106 14.6139 2.4004 14.6437 2.40039 14.7256V17.7012C2.40029 17.8667 2.26612 18.0009 2.10059 18.001H2C1.44772 18.001 1 17.5533 1 17.001V13C1 12.4477 1.44772 12 2 12H6.00098Z" fill="#0C1126"/>
<path d="M10.209 1.01172C13.2643 1.1681 15.9203 2.84967 17.4473 5.31738C17.4904 5.38706 17.6006 5.35732 17.6006 5.27539V2.2998C17.6007 2.13427 17.7349 2.00011 17.9004 2H18.001C18.5533 2 19.001 2.44772 19.001 3V7.00098C19.001 7.55326 18.5533 8.00098 18.001 8.00098H14C13.4477 8.00098 13 7.55326 13 7.00098V6.90039C13.0001 6.73486 13.1343 6.60069 13.2998 6.60059H16.3994C16.4741 6.60059 16.5225 6.52181 16.4873 6.45605C15.1828 4.03689 12.6471 2.40057 9.74219 2.40039C6.51533 2.40039 3.74249 4.41856 2.6084 7.28711C2.4444 7.70161 2.05903 7.99984 1.61328 8H1.29883C1.10479 8 0.961552 7.81844 1.01465 7.63184C2.10586 3.80217 5.59919 1 9.74219 1L10.209 1.01172Z" fill="#0C1126"/>
</g>
</g>
</svg>
