<svg preserveAspectRatio="none" overflow="visible" style="display: block;" width="11.1996" height="14.4" viewBox="0 0 11.1996 14.4" fill="none" xmlns="http://www.w3.org/2000/svg">
<path id="vector" d="M5.60162 14.4C5.9015 14.3999 6.15203 14.1811 6.65318 13.7437L10.8876 10.0492C10.9227 10.0186 10.9406 10.0035 10.9547 9.98984C11.2562 9.69948 11.2826 9.22549 11.0157 8.90312C11.0032 8.888 10.9871 8.8704 10.9555 8.83594C10.9467 8.82626 10.9423 8.82117 10.9383 8.81719C10.8521 8.73154 10.7149 8.72379 10.6196 8.79922C10.6151 8.80275 10.6101 8.80766 10.6001 8.81641L6.69212 12.2249C6.46358 12.4243 6.34932 12.5239 6.25555 12.4813C6.16178 12.4386 6.16178 12.287 6.16178 11.9838L6.16178 0.559375C6.16164 0.250403 5.91062 2.7014e-08 5.60162 0C5.2927 9.40173e-05 5.04238 0.250461 5.04225 0.559375L5.04224 11.9856C5.04224 12.2888 5.04224 12.4403 4.9485 12.483C4.85475 12.5256 4.7405 12.426 4.51198 12.2269L0.599276 8.81641C0.588949 8.80741 0.583552 8.80285 0.578964 8.79922C0.483526 8.72397 0.347035 8.73213 0.260995 8.81797C0.256831 8.82212 0.251539 8.82727 0.242245 8.8375C0.210221 8.87275 0.194058 8.89071 0.181307 8.90625C-0.0829351 9.22856 -0.0553773 9.69966 0.244589 9.98906C0.259084 10.003 0.277298 10.0186 0.313339 10.05L4.55006 13.7445C5.0512 14.1815 5.30182 14.4 5.60162 14.4Z" fill="#161A33"/>
</svg>
